<?xml version="1.0" standalone="no"?><!DOCTYPE svg PUBLIC "-//W3C//DTD SVG 1.1//EN" "http://www.w3.org/Graphics/SVG/1.1/DTD/svg11.dtd"><svg t="1561513225060" class="icon" viewBox="0 0 1024 1024" version="1.1" xmlns="http://www.w3.org/2000/svg" p-id="2333" xmlns:xlink="http://www.w3.org/1999/xlink" width="200" height="200"><defs><style type="text/css"></style></defs><path d="M838.08266 560.660256 727.775368 112.02133c-5.099135-20.7373-25.048489-36.374442-46.403866-36.374442L333.541539 75.646887c-21.355377 0-41.303708 15.638165-46.402843 36.374442l-110.307292 448.637904c-2.978844 12.114922-0.468674 24.444738 6.885827 33.827433 7.355525 9.382695 18.729573 14.764262 31.205723 14.764262l268.118504 0 0 287.803845L260.642229 897.054773c-14.128789 0-25.582655 11.452843-25.582655 25.582655s11.453866 25.582655 25.582655 25.582655l473.42238 0c14.128789 0 25.582655-11.452843 25.582655-25.582655s-11.453866-25.582655-25.582655-25.582655L534.207791 897.054773 534.207791 609.250928l265.782296 0c12.475126 0 23.850198-5.381567 31.204699-14.764262S841.060481 572.775178 838.08266 560.660256zM230.153844 558.085618l106.038058-431.273421 342.53026 0 106.037035 431.273421L230.153844 558.085618z" p-id="2334"></path></svg>