<?xml version="1.0" standalone="no"?><!DOCTYPE svg PUBLIC "-//W3C//DTD SVG 1.1//EN" "http://www.w3.org/Graphics/SVG/1.1/DTD/svg11.dtd"><svg t="1561515145850" class="icon" viewBox="0 0 1024 1024" version="1.1" xmlns="http://www.w3.org/2000/svg" p-id="7672" xmlns:xlink="http://www.w3.org/1999/xlink" width="200" height="200"><defs><style type="text/css"></style></defs><path d="M378.018 327.462c0 28.961 21.603 52.435 48.253 52.435 0.548 0 0.548-104.874 0-104.874-26.65 0-48.253 23.478-48.253 52.439z" fill="" p-id="7673"></path><path d="M434.094 271.897c-12.09 0-21.888 9.246-21.888 20.653v69.817c0 11.413 9.798 20.657 21.888 20.657h8.655c12.084 0 21.884-9.247 21.884-20.657V292.55c0-11.407-9.8-20.653-21.884-20.653h-8.655zM608.241 379.897c26.651 0 48.257-23.474 48.257-52.435 0-28.961-21.606-52.439-48.257-52.439-0.548 0-0.548 104.874 0 104.874z" fill="" p-id="7674"></path><path d="M591.767 271.897c-12.087 0-21.887 9.246-21.887 20.653v69.817c0 11.41 9.8 20.657 21.887 20.657h8.652c12.09 0 21.891-9.244 21.891-20.657V292.55c0-11.407-9.801-20.653-21.891-20.653h-8.652zM501.136 484.812c-8.364 0-15.146 6.763-15.146 15.105V594.4c0 8.342 6.782 15.102 15.146 15.102h32.238c8.369 0 15.151-6.76 15.151-15.102v-94.483c0-8.342-6.782-15.105-15.151-15.105h-32.238zM397.849 645.707l-22.794 22.73c-5.914 5.895-5.914 15.456 0 21.354l67.014 66.812c5.914 5.899 15.505 5.899 21.419 0l22.798-22.727c5.917-5.899 5.917-15.459 0-21.358l-67.015-66.811a15.122 15.122 0 0 0-10.71-4.422 15.126 15.126 0 0 0-10.712 4.422zM615.238 645.707l-67.009 66.811c-5.919 5.899-5.919 15.459-0.002 21.358l22.794 22.727c5.917 5.899 15.505 5.899 21.425 0l67.015-66.812c5.917-5.898 5.917-15.459 0-21.354l-22.798-22.73a15.124 15.124 0 0 0-10.711-4.422c-3.88 0-7.757 1.474-10.714 4.422z" fill="" p-id="7675"></path><path d="M789.256 855.826H236.042c-37.126 0-67.331-30.204-67.331-67.331V235.281c0-37.126 30.205-67.331 67.331-67.331h553.214c37.127 0 67.331 30.205 67.331 67.331v553.214c0 37.127-30.204 67.331-67.331 67.331zM236.042 197.95c-20.584 0-37.331 16.747-37.331 37.331v553.214c0 20.585 16.747 37.331 37.331 37.331h553.214c20.585 0 37.331-16.746 37.331-37.331V235.281c0-20.584-16.746-37.331-37.331-37.331H236.042z" fill="" p-id="7676"></path><path d="M789.256 855.826H236.042c-37.126 0-67.331-30.204-67.331-67.331V235.281c0-37.126 30.205-67.331 67.331-67.331h553.214c37.127 0 67.331 30.205 67.331 67.331v553.214c0 37.127-30.204 67.331-67.331 67.331zM236.042 197.95c-20.584 0-37.331 16.747-37.331 37.331v553.214c0 20.585 16.747 37.331 37.331 37.331h553.214c20.585 0 37.331-16.746 37.331-37.331V235.281c0-20.584-16.746-37.331-37.331-37.331H236.042z" fill="" p-id="7677"></path></svg>