<?xml version="1.0" standalone="no"?><!DOCTYPE svg PUBLIC "-//W3C//DTD SVG 1.1//EN" "http://www.w3.org/Graphics/SVG/1.1/DTD/svg11.dtd"><svg t="1561603756380" class="icon" viewBox="0 0 1024 1024" version="1.1" xmlns="http://www.w3.org/2000/svg" p-id="4611" xmlns:xlink="http://www.w3.org/1999/xlink" width="200" height="200"><defs><style type="text/css"></style></defs><path d="M321.76 441.28a276.95 276.95 0 0 1 380.48 0 8 8 0 0 0 11.17-0.13l42.44-42.44a8 8 0 0 0-0.12-11.44 352.66 352.66 0 0 0-487.46 0 8 8 0 0 0-0.12 11.44l42.44 42.44a8 8 0 0 0 11.17 0.13z" fill="#555555" p-id="4612"></path><path d="M897.89 245.16a553.47 553.47 0 0 0-771.78 0 8 8 0 0 0-0.09 11.41L168.45 299a8 8 0 0 0 11.21 0.1 477.46 477.46 0 0 1 664.68 0 8 8 0 0 0 11.21-0.1L898 256.57a8 8 0 0 0-0.11-11.41zM764.5 533.85h-504a100 100 0 0 0-100 100v293.52a8 8 0 0 0 8 8h56a8 8 0 0 0 8-8V633.85a28 28 0 0 1 28-28h504a28 28 0 0 1 28 28v293.52a8 8 0 0 0 8 8h56a8 8 0 0 0 8-8V633.85a100 100 0 0 0-100-100z" fill="#555555" p-id="4613"></path><path d="M432 669.48m8 0l144 0q8 0 8 8l0 48q0 8-8 8l-144 0q-8 0-8-8l0-48q0-8 8-8Z" fill="#555555" p-id="4614"></path></svg>