<?xml version="1.0" standalone="no"?><!DOCTYPE svg PUBLIC "-//W3C//DTD SVG 1.1//EN" "http://www.w3.org/Graphics/SVG/1.1/DTD/svg11.dtd"><svg t="1561515137811" class="icon" viewBox="0 0 1024 1024" version="1.1" xmlns="http://www.w3.org/2000/svg" p-id="7419" xmlns:xlink="http://www.w3.org/1999/xlink" width="200" height="200"><defs><style type="text/css"></style></defs><path d="M512 0H109.714286C69.339429 0 36.571429 32.768 36.571429 73.142857v877.714286c0 40.374857 32.768 73.142857 73.142857 73.142857H512c40.374857 0 73.142857-32.768 73.142857-73.142857V73.142857c0-40.374857-32.768-73.142857-73.142857-73.142857zM109.714286 950.857143V73.142857H512v877.714286H109.714286z m804.571428-585.142857h-219.428571c-40.374857 0-73.142857 32.841143-73.142857 73.142857v512c0 40.374857 32.768 73.142857 73.142857 73.142857h219.428571c40.374857 0 73.142857-32.768 73.142857-73.142857V438.857143c0-40.301714-32.768-73.142857-73.142857-73.142857z m-219.428571 585.142857V438.857143h219.428571l0.073143 512H694.857143z" p-id="7420"></path><path d="M402.285714 811.885714H219.428571a36.571429 36.571429 0 1 0 0 73.142857h182.857143a36.571429 36.571429 0 1 0 0-73.142857z" p-id="7421"></path></svg>