<?xml version="1.0" standalone="no"?><!DOCTYPE svg PUBLIC "-//W3C//DTD SVG 1.1//EN" "http://www.w3.org/Graphics/SVG/1.1/DTD/svg11.dtd"><svg t="1562066616445" class="icon" viewBox="0 0 1024 1024" version="1.1" xmlns="http://www.w3.org/2000/svg" p-id="2727" xmlns:xlink="http://www.w3.org/1999/xlink" width="200" height="200"><defs><style type="text/css"></style></defs><path d="M378.11367379 588.88521703c-10.60485751 0-19.88410785-6.62803595-22.53532223-17.23289348-2.65121438-11.93046471-5.30242877-26.51214381-5.30242875-39.7682157 0-83.51325298 133.88632621-235.95807984 148.46800529-253.19097331 3.97682157-5.30242877 10.60485751-7.95364315 17.23289347-7.95364315 0 0 0 0 0 0 6.62803595 0 13.2560719 2.65121438 17.23289347 7.95364315 1.3256072 1.3256072 31.81457257 35.79139413 64.95475232 79.53643141 7.95364315 10.60485751 5.30242877 25.18653662-3.97682158 33.14017975-10.60485751 7.95364315-25.18653662 5.30242877-33.14017974-3.97682157-17.23289347-22.53532223-33.14017975-42.41943008-45.07064447-57.00110918-51.69868042 62.30353794-119.30464711 157.74725563-119.30464712 201.4922929 0 10.60485751 1.3256072 19.88410785 2.65121438 29.16335819 2.65121438 11.93046471-3.97682157 25.18653662-17.23289346 27.83775099C382.09049537 588.88521703 379.43928098 588.88521703 378.11367379 588.88521703z" p-id="2728"></path><path d="M517.30242877 693.60818505c-27.83775099 0-55.67550198-6.62803595-78.21082424-18.55850067-11.93046471-6.62803595-15.90728628-19.88410785-9.27925031-31.81457256 6.62803595-11.93046471 19.88410785-15.90728628 31.81457255-9.27925033 15.90728628 7.95364315 35.79139413 13.2560719 57.00110918 13.2560719 67.6059667 0 120.6302543-50.37307323 120.6302543-115.32782554 0-11.93046471-5.30242877-27.83775099-14.58167908-50.37307322-5.30242877-11.93046471 0-25.18653662 10.60485751-30.48896538 11.93046471-5.30242877 25.18653662 0 30.48896537 10.60485752 13.2560719 27.83775099 19.88410785 50.37307323 19.88410785 68.93157389C684.32893472 620.6997896 608.76932489 693.60818505 517.30242877 693.60818505z" p-id="2729"></path><path d="M765.19097331 949.45037275l-506.38194662 0c-13.2560719 0-23.86092942-10.60485751-23.86092943-23.86092943s10.60485751-23.86092942 23.86092943-23.86092942l506.38194662 0c13.2560719 0 23.86092942 10.60485751 23.86092943 23.86092942S778.44704522 949.45037275 765.19097331 949.45037275z" p-id="2730"></path><path d="M680.35211315 856.65786943l-336.7042263 0c-90.14128893 0-163.04968438-72.90839547-163.04968438-163.04968438l0-454.68326621c0-90.14128893 72.90839547-164.37529157 163.04968438-164.37529159l336.7042263 0c90.14128893 0 163.04968438 72.90839547 163.04968438 164.37529159l0 454.68326621C843.40179753 783.74947397 770.49340208 856.65786943 680.35211315 856.65786943zM343.64788685 120.94587891c-64.95475232 0-116.65343273 53.02428761-116.65343272 117.97903993l0 454.68326621c0 64.95475232 53.02428761 116.65343273 116.65343272 116.65343273l336.7042263 0c64.95475232 0 116.65343273-53.02428761 116.65343272-116.65343273l0-454.68326621c0-64.95475232-53.02428761-117.97903991-116.65343272-117.97903993L343.64788685 120.94587891z" p-id="2731"></path><path d="M351.60152999 936.19430083c-13.2560719 0-23.86092942-10.60485751-23.86092942-23.86092942l0-79.53643141c0-13.2560719 10.60485751-23.86092942 23.86092942-23.86092942s23.86092942 10.60485751 23.86092942 23.86092942l0 79.53643141C374.13685223 926.91505051 364.8576019 936.19430083 351.60152999 936.19430083z" p-id="2732"></path><path d="M672.39847001 936.19430083c-13.2560719 0-23.86092942-10.60485751-23.86092942-23.86092942l0-79.53643141c0-13.2560719 10.60485751-23.86092942 23.86092942-23.86092942s23.86092942 10.60485751 23.86092942 23.86092942l0 79.53643141C694.93379223 926.91505051 685.6545419 936.19430083 672.39847001 936.19430083z" p-id="2733"></path><path d="M347.62470843 694.93379223c-6.62803595 0-11.93046471-2.65121438-17.23289348-6.62803594-9.27925033-9.27925033-7.95364315-23.86092942 1.32560718-33.14017976l324.7737616-306.21526091c9.27925033-9.27925033 23.86092942-7.95364315 33.14017974 1.32560719 9.27925033 9.27925033 7.95364315 23.86092942-1.32560718 33.14017975l-324.77376159 306.21526091C359.55517314 693.60818505 352.92713718 694.93379223 347.62470843 694.93379223z" p-id="2734"></path></svg>