<?xml version="1.0" standalone="no"?><!DOCTYPE svg PUBLIC "-//W3C//DTD SVG 1.1//EN" "http://www.w3.org/Graphics/SVG/1.1/DTD/svg11.dtd"><svg t="1561516496005" class="icon" viewBox="0 0 1024 1024" version="1.1" xmlns="http://www.w3.org/2000/svg" p-id="15346" xmlns:xlink="http://www.w3.org/1999/xlink" width="200" height="200"><defs><style type="text/css"></style></defs><path d="M952.48 476.64L549.36 71.52a52.64 52.64 0 0 0-74.72 0l-83.2 81.2a8 8 0 0 1-12.4-1.52A52.48 52.48 0 0 0 336 128H248c-29.12 0-48 26.72-48 56v160L71.52 476.64a53.12 53.12 0 0 0 37.36 90.64L168 568a8 8 0 0 1 8 8v336a57.04 57.04 0 0 0 54.48 56h172.96c29.12 0 52.56-26.72 52.56-56V728a8 8 0 0 1 8-8h80a8 8 0 0 1 8 8v184c0 29.28 23.52 56 52.64 56H777.6a56.96 56.96 0 0 0 54.4-56V752a32 32 0 0 0-64 0v144a8 8 0 0 1-8 8H624a8 8 0 0 1-8-8V712a56.64 56.64 0 0 0-54-56H442.56C413.44 656 392 682.72 392 712v184a8 8 0 0 1-8 8H248a8 8 0 0 1-8-8V560c0-29.28-22.32-56.72-51.52-56.72l-32.8 0.48a8 8 0 0 1-5.76-13.68L248 392a59.28 59.28 0 0 0 16-40V200a8 8 0 0 1 8-8h49.84a8 8 0 0 1 7.52 5.28A54.48 54.48 0 0 0 360 231.2a52.56 52.56 0 0 0 57.6-11.52l88.72-86.24a8 8 0 0 1 11.2 0l356.8 356.8a8 8 0 0 1-5.68 13.68H800a32.72 32.72 0 0 0-33.44 31.28A34 34 0 0 0 800 568h112a57.76 57.76 0 0 0 51.92-33.52 53.12 53.12 0 0 0-11.44-57.84z" p-id="15347"></path><path d="M800 640m-32 0a32 32 0 1 0 64 0 32 32 0 1 0-64 0Z" p-id="15348"></path></svg>